PathFileType	4	(X/Y/Z)	./resultDataOpenSim/trcMotMarkerGrf/sub10/qtm-05-07.trc
DataRate	CameraRate	NumFrames	NumMarkers	Units	OrigDataRate	OrigDataStartFrame	OrigNumFrames
250.000000	250.000000	6	24	m	250.000000	321	513
Frame#	Time	L.Toe.Tip			R.Toe.Tip			L.Ankle.Lat			R.Ankle.Lat			L.Ankle.Med			R.Ankle.Med			L.Heel			R.Heel			L.Knee.Lat			R.Knee.Lat			L.Knee.Med			R.Knee.Med			L.Thigh.Upper			R.Thigh.Upper			L.ASIS			R.ASIS			V.Sacral			L.Acromium			R.Acromium			C7			L.Elbow			R.Elbow			L.Wrist.Lat			R.Wrist.Lat
		X1	Y1	Z1	X2	Y2	Z2	X3	Y3	Z3	X4	Y4	Z4	X5	Y5	Z5	X6	Y6	Z6	X7	Y7	Z7	X8	Y8	Z8	X9	Y9	Z9	X10	Y10	Z10	X11	Y11	Z11	X12	Y12	Z12	X13	Y13	Z13	X14	Y14	Z14	X15	Y15	Z15	X16	Y16	Z16	X17	Y17	Z17	X18	Y18	Z18	X19	Y19	Z19	X20	Y20	Z20	X21	Y21	Z21	X22	Y22	Z22	X23	Y23	Z23	X24	Y24	Z24

321	1.28	0.092362704	-0.056276304	-0.12492977	0.94086556	0.041363844	0.02550912	0.0068126758	0.044268113	-0.16765944	0.80005573	0.05415329	0.067740499	0.026588082	0.059622597	-0.08746426	0.81562025	0.080672223	-0.016910493	-0.058088797	0.060616347	-0.12526795	0.74867104	0.028570346	0.023816691	0.24291809	0.35408646	-0.19164861	0.75071232	0.44745512	0.076166969	0.2497314	0.32195717	-0.071993927	0.75074213	0.45184904	-0.052426828	0.38764	0.71274184	-0.23311767	0.50983425	0.7674097	0.14043987	0.4810411	0.80883369	-0.19280043	0.54889481	0.84166632	0.045332664	0.32247029	0.84093578	-0.019469112	0.52604559	1.2967281	-0.20077607	0.49824065	1.2911291	0.1125852	0.42772557	1.3240884	-0.060114568	0.57418497	0.95327658	-0.28665451	0.29309644	1.0130286	0.11884661	0.80617469	0.96647851	-0.19246789	0.24432169	0.80885598	0.23757378
322	1.284	0.093824838	-0.056278798	-0.12488274	0.94191169	0.04076763	0.02562907	0.011578314	0.046938499	-0.16877114	0.80078378	0.054242151	0.067417102	0.032249466	0.061649591	-0.088734888	0.81645277	0.080243062	-0.017318917	-0.052242908	0.064916258	-0.12563346	0.74914856	0.028797812	0.023702165	0.25086736	0.35470027	-0.19198676	0.75679444	0.44837537	0.075921498	0.2571228	0.32236318	-0.072356619	0.75534476	0.45306715	-0.052858131	0.39545559	0.71267641	-0.2329631	0.51604659	0.76933131	0.14073451	0.48871681	0.80899916	-0.19158628	0.55573144	0.84320539	0.046346792	0.32946495	0.84230849	-0.020245128	0.53370627	1.2981507	-0.19955733	0.50462889	1.2923706	0.11347686	0.43469332	1.3252779	-0.059374504	0.57983019	0.95444091	-0.2862402	0.30103793	1.0135621	0.11941255	0.8115665	0.9655653	-0.19136904	0.25207373	0.80944508	0.23849875
323	1.288	0.095463967	-0.056364361	-0.12485743	0.94268695	0.040353799	0.025675507	0.016632146	0.049495904	-0.16986355	0.80133409	0.054300859	0.067123542	0.038325257	0.063551152	-0.09004264	0.81713584	0.079836987	-0.017674541	-0.045932887	0.069208467	-0.12588649	0.749527	0.028938557	0.023585091	0.2591419	0.35525939	-0.19242831	0.76262264	0.44907316	0.075564535	0.26490587	0.3226408	-0.072835576	0.75992294	0.45414784	-0.053228903	0.40327232	0.71266312	-0.23278714	0.52232549	0.77127001	0.1409925	0.49631269	0.80917094	-0.19031401	0.56251517	0.84479634	0.047336367	0.33645213	0.84369084	-0.021086696	0.54131213	1.2996126	-0.19833397	0.51095416	1.293679	0.11435499	0.44158793	1.3265106	-0.058662823	0.58543816	0.95573746	-0.28591111	0.30875769	1.0141674	0.11992629	0.81691595	0.96452244	-0.19040279	0.25994755	0.81002544	0.23947637
324	1.292	0.097270855	-0.056555487	-0.1248702	0.94321033	0.040090687	0.02565268	0.021981641	0.051932624	-0.17090728	0.80165724	0.054329817	0.066910894	0.044802902	0.065320354	-0.091357509	0.81762798	0.079488277	-0.017941487	-0.039160618	0.073481005	-0.12603773	0.74980103	0.029011584	0.023520995	0.26771284	0.35576137	-0.19298528	0.76828072	0.44958446	0.075147564	0.2730907	0.32276353	-0.07349382	0.76448013	0.45507048	-0.053546169	0.41109117	0.71269501	-0.23261525	0.5286597	0.77321597	0.1412526	0.50385739	0.80938314	-0.18895163	0.56923646	0.84644097	0.048291465	0.34336193	0.84514631	-0.021935219	0.548841	1.3011163	-0.19711544	0.51720528	1.2950438	0.11520854	0.44839148	1.3277701	-0.057974517	0.59097	0.9571301	-0.28561272	0.31632313	1.0147813	0.12031896	0.82221616	0.96334886	-0.18960848	0.26794376	0.81060076	0.24050631
325	1.296	0.099205469	-0.056842555	-0.12491535	0.9435419	0.039929327	0.025621147	0.027661977	0.054246097	-0.17191414	0.8017341	0.054347799	0.066797336	0.05164908	0.066968285	-0.092641096	0.81792456	0.079216321	-0.018110724	-0.031965625	0.077723049	-0.12614452	0.74998739	0.029040669	0.023524161	0.27660028	0.35620866	-0.19369747	0.77383594	0.4499561	0.074723027	0.28171457	0.32271465	-0.074350087	0.76903238	0.45582594	-0.053808696	0.41891085	0.71275496	-0.23246181	0.53503901	0.77516318	0.14154445	0.51137896	0.80967731	-0.18749355	0.57590162	0.84814924	0.049205125	0.35013133	0.84672652	-0.022713423	0.55627656	1.3026562	-0.19591006	0.52337051	1.2964565	0.11603557	0.45509741	1.3290429	-0.05731358	0.59642354	0.958604	-0.2853052	0.32379324	1.0153307	0.12056431	0.82747031	0.96206914	-0.18893764	0.27606	0.81117183	0.24158097
326	1.3	0.10119496	-0.057160358	-0.12498976	0.9437691	0.039819612	0.025639349	0.033727065	0.056449851	-0.17289681	0.80167022	0.054361732	0.066760445	0.058808141	0.068538947	-0.093856835	0.81809179	0.079016384	-0.018198357	-0.024423903	0.08194571	-0.1263004	0.75011884	0.029046172	0.023577338	0.28580856	0.35660028	-0.19456933	0.77928749	0.45021853	0.074321999	0.29079835	0.32247299	-0.075386594	0.77359843	0.45641701	-0.054007769	0.42671138	0.71282485	-0.23227785	0.54146056	0.77711264	0.14188723	0.51886917	0.81007833	-0.18597881	0.58251652	0.84991409	0.050070831	0.35674232	0.84844698	-0.023364894	0.56360415	1.3042257	-0.19472643	0.52944462	1.2979152	0.1168404	0.46170642	1.3303228	-0.056686519	0.60182624	0.96016448	-0.28499111	0.33118519	1.0157731	0.1207509	0.83266819	0.9606864	-0.18826128	0.28429712	0.81173624	0.24269859
